# xmcd
#
# Track frame offsets:
#	150
#	16458
#	31749
#	47882
#	66379
#
# Disc length: 1100 seconds
#
# Revision: 1
# Processed by: cddbd v1.5.2PL0 Copyright (c) Steve Scherf et al.
# Submitted via: EasyCDDAExtractor 16.1.0.1
#
DISCID=3d044a05
DTITLE=Carolynne - Coming Back To Me
DYEAR=2017
DGENRE=Country
TTITLE0=Stop In The Name Of Love
TTITLE1=Cupid Must Have Been High
TTITLE2=Real Man
TTITLE3=Let Me Unlove You
TTITLE4=Coming Back To Me
EXTD=YEAR: 2006
EXTT0=
EXTT1=
EXTT2=
EXTT3=
EXTT4=
PLAYORDER=
